<?xml version="1.0" encoding="utf-8"?>
<!-- Generator: Adobe Illustrator 24.3.0, SVG Export Plug-In . SVG Version: 6.00 Build 0)  -->
<svg version="1.1" id="Layer_1" xmlns="http://www.w3.org/2000/svg" xmlns:xlink="http://www.w3.org/1999/xlink" x="0px" y="0px"
	 viewBox="0 0 250.3 63.8" style="enable-background:new 0 0 250.3 63.8;" xml:space="preserve">
<style type="text/css">
	.st0{fill:#0A3C5C;}
</style>
<g>
	<g>
		<path class="st0" d="M39.9,0C34.2,0,29,1.8,24.8,4.9c2,0.3,3.6,2,3.6,4.2l0,0.2c0,1.1-0.4,2.1-1.1,2.9l0.9,0l0.3,0l17,0
			c2.3,0,4.2,1.9,4.2,4.2l0,0.2c0,1.1-0.4,2.1-1.1,2.9l0.9,0c2.3,0,4.2,1.9,4.2,4.2l0,0.2c0,1.1-0.4,2.2-1.2,2.9
			c-0.8,0.8-1.8,1.2-2.9,1.3c0,0-0.1,0-0.1,0l-0.9,0c0.7,0.8,1.1,1.8,1.1,2.9l0,0.2c0,1.1-0.4,2.2-1.2,2.9c-0.8,0.8-1.8,1.2-2.9,1.3
			c0,0-0.1,0-0.1,0l-4,0c0.7,0.8,1.1,1.8,1.1,2.9l0,0.2c0,1.1-0.4,2.2-1.2,2.9c-0.8,0.8-1.8,1.2-2.9,1.3c0,0-0.1,0-0.1,0l-14.7,0
			l-2.2,0l-0.8,0c4.7,5.3,11.5,8.6,19.1,8.6h25.6V25.6C65.5,11.5,54,0,39.9,0z"/>
		<path class="st0" d="M51.6,23.6c0-1.1-0.9-2-2-2l-4,0l0,0c0,0,0,0,0,0c0,0,0,0,0,0l-18.7,0c-0.8,0-1.5-0.7-1.5-1.5
			c0-0.8,0.7-1.5,1.5-1.5c0,0,0,0,0,0l18.8,0c0,0,0,0,0,0c0.5,0,1-0.2,1.4-0.6c0.4-0.4,0.6-0.9,0.6-1.4l0-0.2c0-1.1-0.9-2-2-2
			l-22.4,0l-6.3,0l-2.2,0c-0.8,0-1.5-0.7-1.5-1.5c0-0.8,0.7-1.5,1.5-1.5c0,0,0,0,0,0l4,0l4.6,0c0.1,0,0.1,0,0.2,0l1,0
			c0.5,0,1-0.2,1.4-0.6c0.4-0.4,0.6-0.9,0.6-1.4l0-0.2c0-1.1-0.9-2-2-2l-2,0l-7,0c0,0,0,0,0,0C5.9,7.4,0,13.5,0,22.9l0,6.4
			c0,6.5,4.3,11.2,10.2,11.2l8.8,0l4.8,0l0,0l14.7,0c0,0,0,0,0.1,0c1.1,0,2-0.9,2-2l0-0.2c0-0.5-0.2-1-0.6-1.4
			c-0.4-0.4-0.9-0.6-1.4-0.6l-11.7,0c-0.8,0-1.5-0.7-1.5-1.5c0-0.8,0.7-1.5,1.5-1.5c0,0,0,0,0,0l11.6,0c0,0,0,0,0,0l7.1,0
			c0,0,0,0,0.1,0c1.1,0,2-0.9,2-2l0-0.2c0-1.1-0.9-2-2-2l-18.7,0c-0.8,0-1.5-0.7-1.5-1.5c0-0.8,0.7-1.5,1.5-1.5c0,0,0,0,0,0l18.7,0
			l4,0c0,0,0,0,0.1,0c1.1,0,2-0.9,2-2L51.6,23.6z"/>
	</g>
	<g>
		<path class="st0" d="M83.7,14.5h6.6c5.7,0,10.9,1.6,10.9,7.9c0,6.1-4.5,8.3-10.1,8.3h-2.2v9.9h-5.2V14.5z M88.9,26.6h1.8
			c2.6,0,5-0.9,5-3.9s-2.3-4.1-5-4.1h-1.8V26.6z"/>
		<path class="st0" d="M104.1,22.3c1.9-0.9,4.6-1.5,6.7-1.5c5.9,0,8.3,2.4,8.3,8.1v2.5c0,1.9,0,3.4,0.1,4.8c0,1.5,0.1,2.8,0.2,4.3
			H115c-0.2-1-0.2-2.3-0.2-2.9h-0.1c-1.2,2.1-3.7,3.3-6,3.3c-3.4,0-6.7-2.1-6.7-5.7c0-2.9,1.4-4.6,3.3-5.5c1.9-0.9,4.4-1.1,6.5-1.1
			h2.8c0-3.1-1.4-4.2-4.3-4.2c-2.1,0-4.3,0.8-6,2.1L104.1,22.3z M110,37.4c1.5,0,2.7-0.7,3.5-1.7c0.8-1.1,1-2.5,1-4h-2.2
			c-2.2,0-5.6,0.4-5.6,3.3C106.8,36.7,108.2,37.4,110,37.4z"/>
		<path class="st0" d="M123.4,21.3h4.5v4.4h0.1c0.2-1.8,2.3-4.8,5.3-4.8c0.5,0,1,0,1.5,0.1v5.1c-0.4-0.3-1.3-0.4-2.2-0.4
			c-4.1,0-4.1,5.1-4.1,7.9v7.1h-5V21.3z"/>
		<path class="st0" d="M152.7,39.5c-1.8,1-3.9,1.5-6.6,1.5c-6.4,0-10.1-3.7-10.1-10c0-5.6,3-10.2,9-10.2c7.2,0,9.2,4.9,9.2,11.7
			h-13.3c0.2,3.1,2.4,4.9,5.5,4.9c2.4,0,4.5-0.9,6.4-1.9V39.5z M149.4,29.1c-0.1-2.4-1.3-4.5-4.1-4.5c-2.8,0-4.2,1.9-4.5,4.5H149.4z
			"/>
		<path class="st0" d="M157.4,21.3h4.8v2.6h0.1c1.6-2.2,3.7-3.1,6.3-3.1c4.6,0,6.6,3.2,6.6,7.6v12.2h-5V30.3c0-2.4,0-5.5-3.3-5.5
			c-3.6,0-4.4,3.9-4.4,6.4v9.4h-5V21.3z"/>
		<path class="st0" d="M180.9,25h-3.7v-3.7h3.7v-3.9l5-1.6v5.5h4.5V25H186v9c0,1.6,0.4,3.2,2.4,3.2c0.9,0,1.8-0.2,2.3-0.5l0.2,4
			c-1,0.3-2.2,0.4-3.7,0.4c-3.9,0-6.1-2.4-6.1-6.3V25z"/>
		<path class="st0" d="M193.5,14.5h6.6c5.7,0,10.9,1.6,10.9,7.9c0,6.1-4.5,8.3-10.1,8.3h-2.2v9.9h-5.2V14.5z M198.8,26.6h1.8
			c2.6,0,5-0.9,5-3.9s-2.3-4.1-5-4.1h-1.8V26.6z"/>
		<path class="st0" d="M213.9,22.3c1.9-0.9,4.6-1.5,6.7-1.5c5.9,0,8.3,2.4,8.3,8.1v2.5c0,1.9,0,3.4,0.1,4.8c0,1.5,0.1,2.8,0.2,4.3
			h-4.4c-0.2-1-0.2-2.3-0.2-2.9h-0.1c-1.2,2.1-3.7,3.3-6,3.3c-3.4,0-6.7-2.1-6.7-5.7c0-2.9,1.4-4.6,3.3-5.5c1.9-0.9,4.4-1.1,6.5-1.1
			h2.8c0-3.1-1.4-4.2-4.3-4.2c-2.1,0-4.3,0.8-6,2.1L213.9,22.3z M219.8,37.4c1.5,0,2.7-0.7,3.5-1.7c0.8-1.1,1-2.5,1-4h-2.2
			c-2.2,0-5.6,0.4-5.6,3.3C216.6,36.7,218,37.4,219.8,37.4z"/>
		<path class="st0" d="M240.5,35.4L240.5,35.4l4.7-14.1h5.1l-7.2,19.1c-1.6,4.3-2.8,8.5-8,8.5c-1.2,0-2.4-0.2-3.6-0.5l0.3-3.7
			c0.6,0.2,1.3,0.3,2.6,0.3c2,0,3.3-1.4,3.3-3.4l-7.4-20.3h5.5L240.5,35.4z"/>
	</g>
</g>
<g>
	<path class="st0" d="M91.4,63.4c-1.2,0.2-2.3,0.4-3.3,0.4c-1,0-1.7-0.1-2.3-0.4c-0.6-0.3-1.1-0.7-1.4-1.2c-0.3-0.6-0.5-1.2-0.7-1.9
		c-0.1-0.7-0.2-1.6-0.2-2.7c0-1.1,0.1-2,0.2-2.7s0.3-1.4,0.7-2c0.3-0.6,0.8-1,1.4-1.2c0.6-0.3,1.4-0.4,2.3-0.4c0.9,0,2,0.1,3.3,0.4
		l-0.1,1.1c-1.2-0.2-2.2-0.3-3.2-0.3c-1.3,0-2.2,0.4-2.6,1.2c-0.4,0.8-0.6,2.1-0.6,3.9c0,0.9,0,1.7,0.1,2.2c0.1,0.6,0.2,1.1,0.5,1.5
		c0.2,0.5,0.6,0.8,1,1c0.4,0.2,1.1,0.3,1.9,0.3c0.8,0,1.8-0.1,2.9-0.3L91.4,63.4z"/>
	<path class="st0" d="M102.9,57.6c0,2.2-0.3,3.8-1,4.7c-0.7,1-2,1.5-3.8,1.5c-1.8,0-3.1-0.5-3.8-1.5c-0.7-1-1-2.6-1-4.7
		c0-2.1,0.4-3.7,1.1-4.8c0.7-1,2-1.6,3.8-1.6c1.8,0,3.1,0.5,3.8,1.6C102.5,53.8,102.9,55.4,102.9,57.6z M94.6,57.5
		c0,1.8,0.2,3.1,0.7,3.9c0.5,0.8,1.4,1.2,2.7,1.2c1.3,0,2.3-0.4,2.7-1.1c0.5-0.8,0.7-2,0.7-3.8c0-1.8-0.2-3.1-0.7-3.9
		c-0.5-0.8-1.4-1.2-2.7-1.2s-2.2,0.4-2.7,1.2C94.9,54.4,94.6,55.7,94.6,57.5z"/>
	<path class="st0" d="M106.9,59.9c0,1.8,1,2.6,2.9,2.6c1,0,1.7-0.2,2.2-0.6c0.5-0.4,0.8-1.1,0.8-2v-8.5h1.3v8.5c0,1.4-0.4,2.4-1.1,3
		c-0.7,0.6-1.8,0.9-3.2,0.9c-1.4,0-2.5-0.3-3.2-0.9c-0.7-0.6-1.1-1.6-1.1-3v-8.5h1.4V59.9z"/>
	<path class="st0" d="M117.3,63.6V51.4h2.5l4.7,11h0.4v-11h1.3v12.2h-2.5l-4.8-11h-0.3v11H117.3z"/>
	<path class="st0" d="M128.2,52.6v-1.2h8.8v1.2h-3.7v11H132v-11H128.2z"/>
	<path class="st0" d="M152.4,57.6c0,2.2-0.3,3.8-1,4.7c-0.7,1-2,1.5-3.8,1.5c-1.8,0-3.1-0.5-3.8-1.5c-0.7-1-1-2.6-1-4.7
		c0-2.1,0.4-3.7,1.1-4.8c0.7-1,2-1.6,3.8-1.6s3.1,0.5,3.8,1.6C152,53.8,152.4,55.4,152.4,57.6z M144.1,57.5c0,1.8,0.2,3.1,0.7,3.9
		c0.5,0.8,1.4,1.2,2.7,1.2c1.3,0,2.3-0.4,2.7-1.1c0.5-0.8,0.7-2,0.7-3.8c0-1.8-0.2-3.1-0.7-3.9c-0.5-0.8-1.4-1.2-2.7-1.2
		s-2.2,0.4-2.7,1.2C144.3,54.4,144.1,55.7,144.1,57.5z"/>
	<path class="st0" d="M155.1,63.6V51.4h2.5l4.7,11h0.4v-11h1.3v12.2h-2.5l-4.8-11h-0.3v11H155.1z"/>
	<path class="st0" d="M172.7,59.9c0,1.8,1,2.6,2.9,2.6c1,0,1.7-0.2,2.2-0.6c0.5-0.4,0.8-1.1,0.8-2v-8.5h1.3v8.5c0,1.4-0.4,2.4-1.1,3
		c-0.7,0.6-1.8,0.9-3.2,0.9s-2.5-0.3-3.2-0.9c-0.7-0.6-1.1-1.6-1.1-3v-8.5h1.4V59.9z"/>
	<path class="st0" d="M186.5,52.4c-1.8,0-2.6,0.7-2.6,2c0,0.7,0.2,1.3,0.6,1.5c0.4,0.3,1.2,0.6,2.5,0.8c1.2,0.3,2.1,0.6,2.6,1.1
		s0.8,1.2,0.8,2.2c0,2.5-1.3,3.8-3.9,3.8c-0.9,0-1.9-0.1-3.2-0.3l-0.6-0.1l0.1-1.1c1.6,0.2,2.8,0.3,3.7,0.3c1.7,0,2.6-0.8,2.6-2.5
		c0-0.7-0.2-1.1-0.6-1.4c-0.4-0.3-1.1-0.5-2.1-0.7c-1.4-0.3-2.4-0.7-2.9-1.1s-0.9-1.2-0.9-2.3c0-2.2,1.3-3.3,3.9-3.3
		c0.9,0,1.9,0.1,3.1,0.3l0.6,0.1l-0.1,1.1C188.3,52.5,187.2,52.4,186.5,52.4z"/>
</g>
</svg>
